<svg class="svg-standalone-icon" width="100%" viewBox="206.54046756624692 200.10612297571922 76.13209290331864 69.78775404856154"><g data-paper-data="{&quot;isIcon&quot;:&quot;true&quot;,&quot;iconType&quot;:&quot;icon&quot;,&quot;rawIconId&quot;:&quot;5348394&quot;,&quot;selectedEffects&quot;:{&quot;container&quot;:&quot;&quot;,&quot;transformation&quot;:&quot;&quot;,&quot;pattern&quot;:&quot;&quot;},&quot;combineTerms&quot;:&quot;farming&quot;,&quot;isDetailed&quot;:false,&quot;fillRule&quot;:&quot;evenodd&quot;,&quot;bounds&quot;:{&quot;x&quot;:206.54046756624692,&quot;y&quot;:200.10612297571922,&quot;width&quot;:76.13209290331864,&quot;height&quot;:69.78775404856154},&quot;iconStyle&quot;:&quot;icon-in-text&quot;,&quot;suitableAsStandaloneIcon&quot;:true}" fill-rule="evenodd"><path d="M277.8875,200.10612h-66.56197c-2.63845,0 -4.78506,2.14661 -4.78506,4.78506v43.72234c0,2.63845 2.14661,4.78506 4.78506,4.78506h27.21738c-0.12641,2.55344 -0.93262,5.03471 -2.38753,7.21732l-0.55862,0.83793c-3.31634,0.94896 -6.06345,3.37186 -7.39465,6.69994c-0.15639,0.39081 -0.10865,0.83396 0.12752,1.18259c0.23585,0.34862 0.62968,0.55751 1.05062,0.55751h30.45283c0.42095,0 0.81477,-0.20873 1.05062,-0.55751c0.23601,-0.34862 0.28391,-0.79177 0.12752,-1.18259c-1.3312,-3.32808 -4.0783,-5.75099 -7.39465,-6.69994l-0.55862,-0.83793c-1.45491,-2.18261 -2.26303,-4.66388 -2.38991,-7.21732h27.21976c2.63814,0 4.78474,-2.14661 4.78474,-4.78506v-43.72234c0,-2.63845 -2.14661,-4.78506 -4.78506,-4.78506zM211.32553,202.64386h66.56197c1.23921,0 2.24732,1.00811 2.24732,2.24732v38.35646h-43.73138l-1.17957,-1.76928c-2.20291,-3.30461 -5.74543,-5.40585 -9.65038,-5.78239v-0.4384c1.52645,-0.01634 4.00122,-0.29993 6.11848,-1.73565c3.26337,-2.21259 4.30289,-6.2322 4.34556,-6.40223c0.08787,-0.35037 0.02236,-0.72167 -0.18065,-1.02081c-0.2027,-0.29913 -0.52341,-0.49755 -0.88154,-0.54546c-0.17368,-0.02348 -4.29258,-0.54561 -7.55611,1.66729c-0.71897,0.48741 -1.32977,1.06283 -1.84604,1.66523v-5.04803c1.52645,-0.01634 4.00122,-0.29993 6.11848,-1.73565c3.26337,-2.21259 4.30289,-6.2322 4.34556,-6.40223c0.08787,-0.35037 0.02236,-0.72167 -0.18065,-1.02081c-0.2027,-0.29913 -0.52341,-0.49755 -0.88154,-0.54546c-0.17368,-0.02348 -4.29258,-0.54561 -7.55611,1.66729c-0.71897,0.48741 -1.32977,1.06283 -1.84604,1.66523v-4.36158c0.43633,0.06202 0.93468,0.10643 1.46665,0.10643c1.12311,0 2.39626,-0.1981 3.55315,-0.84665c2.90618,-1.62939 3.7687,-5.36826 3.80391,-5.52655c0.14068,-0.63126 -0.21586,-1.26728 -0.82794,-1.47665c-0.15369,-0.0525 -3.79297,-1.26696 -6.69915,0.36226c-1.15007,0.64506 -1.97943,1.62098 -2.56486,2.57438c-0.58543,-0.95339 -1.41479,-1.92931 -2.56565,-2.57453c-2.9065,-1.62954 -6.54562,-0.41476 -6.69915,-0.36226c-0.61191,0.2092 -0.96846,0.84523 -0.82794,1.47665c0.03537,0.15829 0.89772,3.89701 3.80391,5.52655c1.15689,0.64855 2.43004,0.84665 3.55315,0.84665c0.53197,0 1.03016,-0.04457 1.46665,-0.10658v4.36173c-0.51627,-0.6024 -1.12691,-1.17767 -1.84604,-1.66523c-3.26353,-2.21275 -7.38259,-1.69061 -7.55611,-1.66729c-0.35814,0.04806 -0.67869,0.24648 -0.88154,0.54546c-0.20286,0.29913 -0.26837,0.67044 -0.18065,1.02081c0.04282,0.17003 1.08219,4.18964 4.34556,6.40223c2.11758,1.43573 4.59203,1.71932 6.11848,1.73565v5.04803c-0.51627,-0.6024 -1.12691,-1.17767 -1.84604,-1.66523c-3.26353,-2.21275 -7.38259,-1.69061 -7.55611,-1.66729c-0.35814,0.04806 -0.67869,0.24648 -0.88154,0.54546c-0.20286,0.29913 -0.26837,0.67044 -0.18065,1.02081c0.04282,0.17003 1.08219,4.18964 4.34556,6.40223c2.11758,1.43573 4.59203,1.71932 6.11848,1.73565v0.4384c-3.90494,0.37654 -7.44746,2.47778 -9.65038,5.78239l-1.17878,1.76944h-3.1276v-38.35646c0,-1.23921 1.00811,-2.24732 2.24732,-2.24732zM252.21973,211.52594c0,2.79865 -2.27683,5.07547 -5.07547,5.07547c-2.79865,0 -5.07547,-2.27683 -5.07547,-5.07547c0,-1.15943 0.70073,-2.69714 2.14201,-4.70147c0.98052,-1.36324 1.94835,-2.44495 1.98911,-2.49031c0.24061,-0.26821 0.58415,-0.42142 0.94435,-0.42142c0.3602,0 0.70375,0.15322 0.94435,0.42142c0.68995,0.76877 4.13112,4.72844 4.13112,7.19179zM275.05935,207.71933h-7.61321c-0.70073,0 -1.26887,-0.56814 -1.26887,-1.26887c0,-0.70073 0.56814,-1.26887 1.26887,-1.26887h7.61321c0.70073,0 1.26887,0.56814 1.26887,1.26887c0,0.70073 -0.56814,1.26887 -1.26887,1.26887zM249.68199,211.52594c0,-0.65442 -0.94832,-2.41069 -2.53774,-4.38552c-1.58926,1.97468 -2.53774,3.73111 -2.53774,4.38552c0,1.39924 1.13849,2.53774 2.53774,2.53774c1.39924,0 2.53774,-1.13849 2.53774,-2.53774zM225.9597,210.59808c0.38558,-0.89186 1.06569,-2.05224 2.15152,-2.66098c1.08615,-0.60937 2.43131,-0.58415 3.39264,-0.44744c-0.38558,0.8917 -1.06553,2.05208 -2.15137,2.66082v0.00016c-1.08647,0.60906 -2.43131,0.58352 -3.3928,0.44744zM217.10618,207.49126c0.9626,-0.13545 2.30966,-0.16083 3.39184,0.44585c1.08552,0.60858 1.76547,1.76817 2.15089,2.65923c-0.96244,0.13545 -2.30966,0.16115 -3.392,-0.44569v-0.00016c-1.08552,-0.60858 -1.76531,-1.76817 -2.15073,-2.65923zM275.05935,211.52594h-19.03302c-0.70073,0 -1.26887,-0.56814 -1.26887,-1.26887c0,-0.70073 0.56814,-1.26887 1.26887,-1.26887h19.03302c0.70073,0 1.26887,0.56814 1.26887,1.26887c0,0.70073 -0.56814,1.26887 -1.26887,1.26887zM275.05935,215.33254h-19.03302c-0.70073,0 -1.26887,-0.56814 -1.26887,-1.26887c0,-0.70073 0.56814,-1.26887 1.26887,-1.26887h19.03302c0.70073,0 1.26887,0.56814 1.26887,1.26887c0,0.70073 -0.56814,1.26887 -1.26887,1.26887zM274.35434,221.63866c0.23886,0.4035 0.42428,0.84221 0.54434,1.30709h1.42954c0.70073,0 1.26887,0.56814 1.26887,1.26887c0,0.70073 -0.56814,1.26887 -1.26887,1.26887h-1.42954c-0.12022,0.46488 -0.30564,0.90359 -0.54434,1.30709l1.01287,1.01287c0.49549,0.49565 0.49549,1.29884 0,1.7945c-0.24775,0.24775 -0.57242,0.37162 -0.89725,0.37162c-0.32483,0 -0.6495,-0.12387 -0.89725,-0.37162l-1.01287,-1.01287c-0.4035,0.23886 -0.84221,0.42428 -1.30709,0.54434v1.42954c0,0.70073 -0.56814,1.26887 -1.26887,1.26887c-0.70073,0 -1.26887,-0.56814 -1.26887,-1.26887v-1.42954c-0.46488,-0.12022 -0.90359,-0.30564 -1.30709,-0.54434l-1.01287,1.01287c-0.24775,0.24775 -0.57242,0.37162 -0.89725,0.37162c-0.32483,0 -0.6495,-0.12387 -0.89725,-0.37162c-0.49549,-0.49565 -0.49549,-1.29884 0,-1.7945l1.01287,-1.01287c-0.23886,-0.4035 -0.42428,-0.84221 -0.54434,-1.30709h-1.42954c-0.70073,0 -1.26887,-0.56814 -1.26887,-1.26887c0,-0.70073 0.56814,-1.26887 1.26887,-1.26887h1.42954c0.12022,-0.46488 0.30564,-0.90359 0.54434,-1.30709l-1.01287,-1.01287c-0.49549,-0.49565 -0.49549,-1.29884 0,-1.7945c0.49565,-0.49533 1.29884,-0.49533 1.7945,0l1.01287,1.01287c0.4035,-0.23886 0.84221,-0.42428 1.30709,-0.54434v-1.42954c0,-0.70073 0.56814,-1.26887 1.26887,-1.26887c0.70073,0 1.26887,0.56814 1.26887,1.26887v1.42954c0.46488,0.12022 0.90359,0.30564 1.30709,0.54434l1.01287,-1.01287c0.49565,-0.49533 1.29884,-0.49533 1.7945,0c0.49549,0.49565 0.49549,1.29884 0,1.7945zM222.48523,221.27814c-1.18179,-0.07359 -2.79468,-0.36163 -4.14397,-1.27648c-1.35134,-0.91644 -2.21687,-2.31156 -2.72188,-3.38217c1.17688,0.07153 2.78596,0.35941 4.14634,1.28156c1.34928,0.91501 2.21386,2.30696 2.7195,3.37709zM230.26799,220.00166c-1.3496,0.91501 -2.96265,1.20289 -4.14381,1.27664c0.50564,-1.07061 1.37038,-2.4624 2.7195,-3.37725c1.3496,-0.91501 2.96265,-1.20289 4.14381,-1.27648c-0.5058,1.07061 -1.37038,2.4624 -2.7195,3.37709zM259.83294,220.40801h-5.07547c-0.70073,0 -1.26887,-0.56814 -1.26887,-1.26887c0,-0.70073 0.56814,-1.26887 1.26887,-1.26887h5.07547c0.70073,0 1.26887,0.56814 1.26887,1.26887c0,0.70073 -0.56814,1.26887 -1.26887,1.26887zM261.1018,222.94575c0,0.70073 -0.56814,1.26887 -1.26887,1.26887h-13.95755c-0.70073,0 -1.26887,-0.56814 -1.26887,-1.26887c0,-0.70073 0.56814,-1.26887 1.26887,-1.26887h13.95755c0.70073,0 1.26887,0.56814 1.26887,1.26887zM267.44614,224.21462c0,1.39924 1.13849,2.53774 2.53774,2.53774c1.39924,0 2.53774,-1.13849 2.53774,-2.53774c0,-1.39924 -1.13849,-2.53774 -2.53774,-2.53774c-1.39924,0 -2.53774,1.13849 -2.53774,2.53774zM261.1018,226.75235c0,0.70073 -0.56814,1.26887 -1.26887,1.26887h-6.34434c-0.70073,0 -1.26887,-0.56814 -1.26887,-1.26887c0,-0.70073 0.56814,-1.26887 1.26887,-1.26887h6.34434c0.70073,0 1.26887,0.56814 1.26887,1.26887zM250.95086,229.29009c0,0.70073 -0.56814,1.26887 -1.26887,1.26887h-1.26887v1.26887h1.26887c0.70073,0 1.26887,0.56814 1.26887,1.26887c0,0.70073 -0.56814,1.26887 -1.26887,1.26887h-1.26887v0.21824c1.4768,0.52388 2.53774,1.93423 2.53774,3.58836c0,2.09887 -1.70774,3.8066 -3.8066,3.8066c-2.09887,0 -3.8066,-1.70774 -3.8066,-3.8066c0,-1.65413 1.06093,-3.06463 2.53774,-3.58836v-6.56259c0,-0.70073 0.56814,-1.26887 1.26887,-1.26887c0.70073,0 1.26887,0.56814 1.26887,1.26887h1.26887c0.70073,0 1.26887,0.56814 1.26887,1.26887zM222.48523,232.69795c-1.18179,-0.07359 -2.79468,-0.36163 -4.14397,-1.27648c-1.35134,-0.91644 -2.21687,-2.31156 -2.72188,-3.38217c1.17688,0.07153 2.78596,0.35941 4.14634,1.28156c1.34928,0.91501 2.21386,2.30696 2.7195,3.37709zM230.26799,231.42147c-1.3496,0.91501 -2.96265,1.20289 -4.14381,1.27664c0.50564,-1.07061 1.37038,-2.4624 2.7195,-3.37725c1.3496,-0.91501 2.96265,-1.20289 4.14381,-1.27648c-0.5058,1.07061 -1.37038,2.4624 -2.7195,3.37709zM254.75746,234.36556c-0.70073,0 -1.26887,-0.56814 -1.26887,-1.26887c0,-0.70073 0.56814,-1.26887 1.26887,-1.26887h8.88208c0.70073,0 1.26887,0.56814 1.26887,1.26887c0,0.70073 -0.56814,1.26887 -1.26887,1.26887zM253.48859,236.9033c0,-0.70073 0.56814,-1.26887 1.26887,-1.26887h20.30189c0.70073,0 1.26887,0.56814 1.26887,1.26887c0,0.70073 -0.56814,1.26887 -1.26887,1.26887h-20.30189c-0.70073,0 -1.26887,-0.56814 -1.26887,-1.26887zM245.87538,238.17217c0,0.69962 0.56925,1.26887 1.26887,1.26887c0.69962,0 1.26887,-0.56925 1.26887,-1.26887c0,-0.69962 -0.56925,-1.26887 -1.26887,-1.26887c-0.69962,0 -1.26887,0.56925 -1.26887,1.26887zM224.30463,238.17217c3.54744,0 6.83999,1.76214 8.80769,4.71384l0.24124,0.36163h-18.09787l0.24124,-0.36163c1.9677,-2.95171 5.26025,-4.71384 8.80769,-4.71384zM253.48859,240.70991c0,-0.70073 0.56814,-1.26887 1.26887,-1.26887h20.30189c0.70073,0 1.26887,0.56814 1.26887,1.26887c0,0.70073 -0.56814,1.26887 -1.26887,1.26887h-20.30189c-0.70073,0 -1.26887,-0.56814 -1.26887,-1.26887zM211.32553,250.86085c-1.23921,0 -2.24732,-1.00811 -2.24732,-2.24732v-2.82815h71.05662v2.82815c0,1.23921 -1.00811,2.24732 -2.24732,2.24732zM234.45557,248.32312c0,-0.70073 0.56814,-1.26887 1.26887,-1.26887h17.76416c0.70073,0 1.26887,0.56814 1.26887,1.26887c0,0.70073 -0.56814,1.26887 -1.26887,1.26887h-17.76416c-0.70073,0 -1.26887,-0.56814 -1.26887,-1.26887zM258.56407,248.32312c0,-0.70073 0.56814,-1.26887 1.26887,-1.26887h2.53774c0.70073,0 1.26887,0.56814 1.26887,1.26887c0,0.70073 -0.56814,1.26887 -1.26887,1.26887h-2.53774c-0.70073,0 -1.26887,-0.56814 -1.26887,-1.26887zM264.9084,248.32312c0,-0.70073 0.56814,-1.26887 1.26887,-1.26887h2.53774c0.70073,0 1.26887,0.56814 1.26887,1.26887c0,0.70073 -0.56814,1.26887 -1.26887,1.26887h-2.53774c-0.70073,0 -1.26887,-0.56814 -1.26887,-1.26887zM272.52161,247.05425h2.53774c0.70073,0 1.26887,0.56814 1.26887,1.26887c0,0.70073 -0.56814,1.26887 -1.26887,1.26887h-2.53774c-0.70073,0 -1.26887,-0.56814 -1.26887,-1.26887c0,-0.70073 0.56814,-1.26887 1.26887,-1.26887zM250.32324,261.01179h-11.43298c1.34246,-2.35089 2.08412,-4.95001 2.19594,-7.61321h7.03667c0.11229,2.66336 0.85728,5.26216 2.20038,7.61321zM231.48784,267.35614c1.62114,-2.35978 4.30495,-3.8066 7.263,-3.8066h11.71134c2.95805,0 5.64186,1.44683 7.263,3.8066z" data-paper-data="{&quot;isPathIcon&quot;:true}"></path></g></svg>