<svg xmlns:mydata="http://www.w3.org/2000/svg" mydata:contrastcolor="11111f" mydata:template="Contrast" mydata:presentation="2.5" mydata:layouttype="undefined" mydata:specialfontid="undefined" mydata:id1="118" mydata:id2="333" mydata:companyname="Nav Agro" mydata:companytagline="" version="1.1" xmlns="http://www.w3.org/2000/svg" xmlns:xlink="http://www.w3.org/1999/xlink" viewBox="0 35 550 400"><g fill="#47d7ac" fill-rule="none" stroke="none" stroke-width="1" stroke-linecap="butt" stroke-linejoin="miter" stroke-miterlimit="10" stroke-dasharray="" stroke-dashoffset="0" font-family="none" font-weight="none" font-size="none" text-anchor="none" style="mix-blend-mode: normal"><g data-paper-data="{&quot;isGlobalGroup&quot;:true,&quot;bounds&quot;:{&quot;x&quot;:65,&quot;y&quot;:200.10612297571922,&quot;width&quot;:420,&quot;height&quot;:69.78775404856154}}"><g data-paper-data="{&quot;isPrimaryText&quot;:true}"><path d="M72.85984,225.04843v33.15077h-7.85984v-45.44761h7.85984h3.5496l20.22007,28.27006v-28.27006h8.43031v45.44761h-8.43031z" data-paper-data="{&quot;glyphName&quot;:&quot;N&quot;,&quot;glyphIndex&quot;:0,&quot;firstGlyphOfWord&quot;:true,&quot;word&quot;:1}" fill-rule="nonzero"></path><path d="M108.54604,258.13581l20.537,-45.19407h10.01495l20.22007,45.19407h-9.31771l-4.75393,-10.01495h-22.88227l-4.75393,10.01495zM134.21728,221.43544l-7.60629,17.49448h15.02243l-7.35275,-17.49448z" data-paper-data="{&quot;glyphName&quot;:&quot;A&quot;,&quot;glyphIndex&quot;:1,&quot;word&quot;:1}" fill-rule="nonzero"></path><path d="M182.13694,258.13581h-11.21928l-14.7055,-45.25745h10.2685l10.07834,31.81967h0.12677l10.20511,-31.81967h10.2685z" data-paper-data="{&quot;glyphName&quot;:&quot;V&quot;,&quot;glyphIndex&quot;:2,&quot;lastGlyphOfWord&quot;:true,&quot;word&quot;:1}" fill-rule="nonzero"></path><path d="M292.05366,258.13581l20.537,-45.19407h10.01495l20.22007,45.19407h-9.31771l-4.75393,-10.01495h-22.88227l-4.75393,10.01495zM317.7249,221.43544l-7.60629,17.49448h15.02243l-7.35275,-17.49448z" data-paper-data="{&quot;glyphName&quot;:&quot;A&quot;,&quot;glyphIndex&quot;:3,&quot;firstGlyphOfWord&quot;:true,&quot;word&quot;:2}" fill-rule="nonzero" fill="#ffffff"></path><path d="M390.36502,235.50709c0,0.42257 -0.06339,1.13038 -0.19016,2.12342c-0.12677,0.99304 -0.2958,2.06004 -0.50709,3.20098c-0.21129,1.14094 -0.47539,2.26076 -0.79232,3.35945c-0.31693,1.09869 -0.68668,1.94383 -1.10925,2.53543c-0.97192,1.81706 -2.17625,3.47565 -3.61299,4.97578c-1.43674,1.50013 -3.04252,2.77841 -4.81732,3.83484c-1.7748,1.05643 -3.68694,1.88045 -5.73641,2.47205c-2.04947,0.5916 -4.1729,0.8874 -6.37027,0.8874c-3.21155,0 -6.23294,-0.61273 -9.06417,-1.83819c-2.83123,-1.22546 -5.31384,-2.90518 -7.44783,-5.03917c-2.13399,-2.13399 -3.81371,-4.6166 -5.03917,-7.44783c-1.22546,-2.83123 -1.83819,-5.87375 -1.83819,-9.12755c0,-3.21155 0.61273,-6.23294 1.83819,-9.06417c1.22546,-2.83123 2.90518,-5.31384 5.03917,-7.44783c2.13399,-2.13399 4.6166,-3.81371 7.44783,-5.03917c2.83123,-1.22546 5.85262,-1.83819 9.06417,-1.83819c2.19737,0 4.31023,0.2958 6.33858,0.8874c2.02835,0.5916 3.91935,1.40505 5.67303,2.44035c1.75367,1.0353 3.34888,2.28189 4.78563,3.73976c1.43674,1.45787 2.6622,3.07421 3.67638,4.84901c-1.01417,0.50709 -1.82762,0.92966 -2.44035,1.26772c-0.61273,0.33806 -1.20433,0.64442 -1.7748,0.91909c-0.57047,0.27467 -1.19377,0.58104 -1.86988,0.91909c-0.67612,0.33806 -1.56352,0.78176 -2.6622,1.3311c-1.1832,-1.98609 -2.8101,-3.59186 -4.88071,-4.81732c-2.0706,-1.22546 -4.35249,-1.83819 -6.84567,-1.83819c-1.90157,0 -3.68694,0.35919 -5.3561,1.07756c-1.66916,0.71837 -3.11647,1.69029 -4.34193,2.91575c-1.22546,1.22546 -2.19737,2.67277 -2.91575,4.34193c-0.71837,1.66916 -1.07756,3.45453 -1.07756,5.3561c0,1.90157 0.35919,3.68694 1.07756,5.3561c0.71837,1.66916 1.69029,3.12703 2.91575,4.37362c1.22546,1.24659 2.67277,2.2185 4.34193,2.91575c1.66916,0.69724 3.45453,1.04587 5.3561,1.04587c2.53543,0 4.85958,-0.63386 6.97244,-1.90157c2.11286,-1.26772 3.78202,-2.91575 5.00748,-4.94409c0,0 -0.2958,-0.01056 -0.8874,-0.03169c-0.5916,-0.02113 -1.3311,-0.02113 -2.2185,0c-0.8874,0.02113 -1.84875,0.03169 -2.88405,0.03169c-1.0353,0 -1.99665,0.01056 -2.88405,0.03169c-0.8874,0.02113 -1.6269,0.03169 -2.2185,0.03169c-0.5916,0 -0.8874,-0.02113 -0.8874,-0.06339v-6.84567c1.60577,0 3.34888,0 5.22933,0c1.88045,0 3.82428,0 5.83149,0c2.00722,0 4.03556,0.01056 6.08504,0.03169c2.04947,0.02113 4.04613,0.03169 5.98996,0.03169z" data-paper-data="{&quot;glyphName&quot;:&quot;G&quot;,&quot;glyphIndex&quot;:4,&quot;word&quot;:2}" fill-rule="nonzero" fill="#ffffff"></path><path d="M421.04374,241.40196h0.38031l11.72637,16.79723h-11.21928l-11.40944,-16.29015h-4.88071v16.29015h-10.01495v-45.32084h20.41022c2.83123,0 5.25046,0.41201 7.25767,1.23602c2.00722,0.82402 3.64468,1.91214 4.9124,3.26437c1.26772,1.35223 2.18681,2.90518 2.75728,4.65886c0.57047,1.75367 0.85571,3.53904 0.85571,5.3561c0,1.52126 -0.21129,3.03195 -0.63386,4.53208c-0.42257,1.50013 -1.06699,2.88405 -1.93327,4.15177c-0.86627,1.26772 -1.97552,2.3664 -3.32775,3.29606c-1.35223,0.92966 -2.97913,1.60577 -4.88071,2.02835zM413.37406,220.61143h-7.73307v13.62794h7.73307c1.1832,0 2.30302,-0.08451 3.35945,-0.25354c1.05643,-0.16903 1.97552,-0.50709 2.75728,-1.01417c0.78176,-0.50709 1.40505,-1.20433 1.86988,-2.09173c0.46483,-0.8874 0.69724,-2.04947 0.69724,-3.48622c0,-1.479 -0.23241,-2.6622 -0.69724,-3.5496c-0.46483,-0.8874 -1.08812,-1.57408 -1.86988,-2.06004c-0.78176,-0.48596 -1.70085,-0.80289 -2.75728,-0.95079c-1.05643,-0.1479 -2.17625,-0.22185 -3.35945,-0.22185z" data-paper-data="{&quot;glyphName&quot;:&quot;R&quot;,&quot;glyphIndex&quot;:5,&quot;word&quot;:2}" fill-rule="nonzero" fill="#ffffff"></path><path d="M485,235.31693c0,3.2538 -0.62329,6.29632 -1.86988,9.12755c-1.24659,2.83123 -2.92631,5.30328 -5.03917,7.41614c-2.11286,2.11286 -4.59547,3.78202 -7.44783,5.00748c-2.85236,1.22546 -5.88431,1.83819 -9.09586,1.83819c-3.2538,0 -6.29632,-0.61273 -9.12755,-1.83819c-2.83123,-1.22546 -5.30328,-2.89462 -7.41614,-5.00748c-2.11286,-2.11286 -3.78202,-4.58491 -5.00748,-7.41614c-1.22546,-2.83123 -1.83819,-5.87375 -1.83819,-9.12755c0,-3.2538 0.61273,-6.30689 1.83819,-9.15925c1.22546,-2.85236 2.89462,-5.33497 5.00748,-7.44783c2.11286,-2.11286 4.58491,-3.78202 7.41614,-5.00748c2.83123,-1.22546 5.87375,-1.83819 9.12755,-1.83819c3.21155,0 6.2435,0.61273 9.09586,1.83819c2.85236,1.22546 5.33497,2.89462 7.44783,5.00748c2.11286,2.11286 3.79258,4.59547 5.03917,7.44783c1.24659,2.85236 1.86988,5.90544 1.86988,9.15925zM461.54726,221.43544c-1.90157,0 -3.68694,0.36975 -5.3561,1.10925c-1.66916,0.7395 -3.12703,1.74311 -4.37362,3.01082c-1.24659,1.26772 -2.23963,2.73615 -2.97913,4.40531c-0.7395,1.66916 -1.10925,3.45453 -1.10925,5.3561c0,1.90157 0.36975,3.68694 1.10925,5.3561c0.7395,1.66916 1.73254,3.12703 2.97913,4.37362c1.24659,1.24659 2.70446,2.23963 4.37362,2.97913c1.66916,0.7395 3.45453,1.10925 5.3561,1.10925c1.90157,0 3.67638,-0.36975 5.32441,-1.10925c1.64803,-0.7395 3.09534,-1.73254 4.34193,-2.97913c1.24659,-1.24659 2.22907,-2.70446 2.94744,-4.37362c0.71837,-1.66916 1.07756,-3.45453 1.07756,-5.3561c0,-1.90157 -0.35919,-3.68694 -1.07756,-5.3561c-0.71837,-1.66916 -1.70085,-3.1376 -2.94744,-4.40531c-1.24659,-1.26772 -2.6939,-2.27132 -4.34193,-3.01082c-1.64803,-0.7395 -3.42283,-1.10925 -5.32441,-1.10925z" data-paper-data="{&quot;glyphName&quot;:&quot;O&quot;,&quot;glyphIndex&quot;:6,&quot;lastGlyphOfWord&quot;:true,&quot;word&quot;:2}" fill-rule="nonzero" fill="#ffffff"></path><g data-paper-data="{&quot;isIcon&quot;:&quot;true&quot;,&quot;iconType&quot;:&quot;icon&quot;,&quot;rawIconId&quot;:&quot;5348394&quot;,&quot;selectedEffects&quot;:{&quot;container&quot;:&quot;&quot;,&quot;transformation&quot;:&quot;&quot;,&quot;pattern&quot;:&quot;&quot;},&quot;combineTerms&quot;:&quot;farming&quot;,&quot;isDetailed&quot;:false,&quot;fillRule&quot;:&quot;evenodd&quot;,&quot;bounds&quot;:{&quot;x&quot;:206.54046756624692,&quot;y&quot;:200.10612297571922,&quot;width&quot;:76.13209290331864,&quot;height&quot;:69.78775404856154},&quot;iconStyle&quot;:&quot;icon-in-text&quot;,&quot;suitableAsStandaloneIcon&quot;:true}" fill-rule="evenodd"><path d="M277.8875,200.10612h-66.56197c-2.63845,0 -4.78506,2.14661 -4.78506,4.78506v43.72234c0,2.63845 2.14661,4.78506 4.78506,4.78506h27.21738c-0.12641,2.55344 -0.93262,5.03471 -2.38753,7.21732l-0.55862,0.83793c-3.31634,0.94896 -6.06345,3.37186 -7.39465,6.69994c-0.15639,0.39081 -0.10865,0.83396 0.12752,1.18259c0.23585,0.34862 0.62968,0.55751 1.05062,0.55751h30.45283c0.42095,0 0.81477,-0.20873 1.05062,-0.55751c0.23601,-0.34862 0.28391,-0.79177 0.12752,-1.18259c-1.3312,-3.32808 -4.0783,-5.75099 -7.39465,-6.69994l-0.55862,-0.83793c-1.45491,-2.18261 -2.26303,-4.66388 -2.38991,-7.21732h27.21976c2.63814,0 4.78474,-2.14661 4.78474,-4.78506v-43.72234c0,-2.63845 -2.14661,-4.78506 -4.78506,-4.78506zM211.32553,202.64386h66.56197c1.23921,0 2.24732,1.00811 2.24732,2.24732v38.35646h-43.73138l-1.17957,-1.76928c-2.20291,-3.30461 -5.74543,-5.40585 -9.65038,-5.78239v-0.4384c1.52645,-0.01634 4.00122,-0.29993 6.11848,-1.73565c3.26337,-2.21259 4.30289,-6.2322 4.34556,-6.40223c0.08787,-0.35037 0.02236,-0.72167 -0.18065,-1.02081c-0.2027,-0.29913 -0.52341,-0.49755 -0.88154,-0.54546c-0.17368,-0.02348 -4.29258,-0.54561 -7.55611,1.66729c-0.71897,0.48741 -1.32977,1.06283 -1.84604,1.66523v-5.04803c1.52645,-0.01634 4.00122,-0.29993 6.11848,-1.73565c3.26337,-2.21259 4.30289,-6.2322 4.34556,-6.40223c0.08787,-0.35037 0.02236,-0.72167 -0.18065,-1.02081c-0.2027,-0.29913 -0.52341,-0.49755 -0.88154,-0.54546c-0.17368,-0.02348 -4.29258,-0.54561 -7.55611,1.66729c-0.71897,0.48741 -1.32977,1.06283 -1.84604,1.66523v-4.36158c0.43633,0.06202 0.93468,0.10643 1.46665,0.10643c1.12311,0 2.39626,-0.1981 3.55315,-0.84665c2.90618,-1.62939 3.7687,-5.36826 3.80391,-5.52655c0.14068,-0.63126 -0.21586,-1.26728 -0.82794,-1.47665c-0.15369,-0.0525 -3.79297,-1.26696 -6.69915,0.36226c-1.15007,0.64506 -1.97943,1.62098 -2.56486,2.57438c-0.58543,-0.95339 -1.41479,-1.92931 -2.56565,-2.57453c-2.9065,-1.62954 -6.54562,-0.41476 -6.69915,-0.36226c-0.61191,0.2092 -0.96846,0.84523 -0.82794,1.47665c0.03537,0.15829 0.89772,3.89701 3.80391,5.52655c1.15689,0.64855 2.43004,0.84665 3.55315,0.84665c0.53197,0 1.03016,-0.04457 1.46665,-0.10658v4.36173c-0.51627,-0.6024 -1.12691,-1.17767 -1.84604,-1.66523c-3.26353,-2.21275 -7.38259,-1.69061 -7.55611,-1.66729c-0.35814,0.04806 -0.67869,0.24648 -0.88154,0.54546c-0.20286,0.29913 -0.26837,0.67044 -0.18065,1.02081c0.04282,0.17003 1.08219,4.18964 4.34556,6.40223c2.11758,1.43573 4.59203,1.71932 6.11848,1.73565v5.04803c-0.51627,-0.6024 -1.12691,-1.17767 -1.84604,-1.66523c-3.26353,-2.21275 -7.38259,-1.69061 -7.55611,-1.66729c-0.35814,0.04806 -0.67869,0.24648 -0.88154,0.54546c-0.20286,0.29913 -0.26837,0.67044 -0.18065,1.02081c0.04282,0.17003 1.08219,4.18964 4.34556,6.40223c2.11758,1.43573 4.59203,1.71932 6.11848,1.73565v0.4384c-3.90494,0.37654 -7.44746,2.47778 -9.65038,5.78239l-1.17878,1.76944h-3.1276v-38.35646c0,-1.23921 1.00811,-2.24732 2.24732,-2.24732zM252.21973,211.52594c0,2.79865 -2.27683,5.07547 -5.07547,5.07547c-2.79865,0 -5.07547,-2.27683 -5.07547,-5.07547c0,-1.15943 0.70073,-2.69714 2.14201,-4.70147c0.98052,-1.36324 1.94835,-2.44495 1.98911,-2.49031c0.24061,-0.26821 0.58415,-0.42142 0.94435,-0.42142c0.3602,0 0.70375,0.15322 0.94435,0.42142c0.68995,0.76877 4.13112,4.72844 4.13112,7.19179zM275.05935,207.71933h-7.61321c-0.70073,0 -1.26887,-0.56814 -1.26887,-1.26887c0,-0.70073 0.56814,-1.26887 1.26887,-1.26887h7.61321c0.70073,0 1.26887,0.56814 1.26887,1.26887c0,0.70073 -0.56814,1.26887 -1.26887,1.26887zM249.68199,211.52594c0,-0.65442 -0.94832,-2.41069 -2.53774,-4.38552c-1.58926,1.97468 -2.53774,3.73111 -2.53774,4.38552c0,1.39924 1.13849,2.53774 2.53774,2.53774c1.39924,0 2.53774,-1.13849 2.53774,-2.53774zM225.9597,210.59808c0.38558,-0.89186 1.06569,-2.05224 2.15152,-2.66098c1.08615,-0.60937 2.43131,-0.58415 3.39264,-0.44744c-0.38558,0.8917 -1.06553,2.05208 -2.15137,2.66082v0.00016c-1.08647,0.60906 -2.43131,0.58352 -3.3928,0.44744zM217.10618,207.49126c0.9626,-0.13545 2.30966,-0.16083 3.39184,0.44585c1.08552,0.60858 1.76547,1.76817 2.15089,2.65923c-0.96244,0.13545 -2.30966,0.16115 -3.392,-0.44569v-0.00016c-1.08552,-0.60858 -1.76531,-1.76817 -2.15073,-2.65923zM275.05935,211.52594h-19.03302c-0.70073,0 -1.26887,-0.56814 -1.26887,-1.26887c0,-0.70073 0.56814,-1.26887 1.26887,-1.26887h19.03302c0.70073,0 1.26887,0.56814 1.26887,1.26887c0,0.70073 -0.56814,1.26887 -1.26887,1.26887zM275.05935,215.33254h-19.03302c-0.70073,0 -1.26887,-0.56814 -1.26887,-1.26887c0,-0.70073 0.56814,-1.26887 1.26887,-1.26887h19.03302c0.70073,0 1.26887,0.56814 1.26887,1.26887c0,0.70073 -0.56814,1.26887 -1.26887,1.26887zM274.35434,221.63866c0.23886,0.4035 0.42428,0.84221 0.54434,1.30709h1.42954c0.70073,0 1.26887,0.56814 1.26887,1.26887c0,0.70073 -0.56814,1.26887 -1.26887,1.26887h-1.42954c-0.12022,0.46488 -0.30564,0.90359 -0.54434,1.30709l1.01287,1.01287c0.49549,0.49565 0.49549,1.29884 0,1.7945c-0.24775,0.24775 -0.57242,0.37162 -0.89725,0.37162c-0.32483,0 -0.6495,-0.12387 -0.89725,-0.37162l-1.01287,-1.01287c-0.4035,0.23886 -0.84221,0.42428 -1.30709,0.54434v1.42954c0,0.70073 -0.56814,1.26887 -1.26887,1.26887c-0.70073,0 -1.26887,-0.56814 -1.26887,-1.26887v-1.42954c-0.46488,-0.12022 -0.90359,-0.30564 -1.30709,-0.54434l-1.01287,1.01287c-0.24775,0.24775 -0.57242,0.37162 -0.89725,0.37162c-0.32483,0 -0.6495,-0.12387 -0.89725,-0.37162c-0.49549,-0.49565 -0.49549,-1.29884 0,-1.7945l1.01287,-1.01287c-0.23886,-0.4035 -0.42428,-0.84221 -0.54434,-1.30709h-1.42954c-0.70073,0 -1.26887,-0.56814 -1.26887,-1.26887c0,-0.70073 0.56814,-1.26887 1.26887,-1.26887h1.42954c0.12022,-0.46488 0.30564,-0.90359 0.54434,-1.30709l-1.01287,-1.01287c-0.49549,-0.49565 -0.49549,-1.29884 0,-1.7945c0.49565,-0.49533 1.29884,-0.49533 1.7945,0l1.01287,1.01287c0.4035,-0.23886 0.84221,-0.42428 1.30709,-0.54434v-1.42954c0,-0.70073 0.56814,-1.26887 1.26887,-1.26887c0.70073,0 1.26887,0.56814 1.26887,1.26887v1.42954c0.46488,0.12022 0.90359,0.30564 1.30709,0.54434l1.01287,-1.01287c0.49565,-0.49533 1.29884,-0.49533 1.7945,0c0.49549,0.49565 0.49549,1.29884 0,1.7945zM222.48523,221.27814c-1.18179,-0.07359 -2.79468,-0.36163 -4.14397,-1.27648c-1.35134,-0.91644 -2.21687,-2.31156 -2.72188,-3.38217c1.17688,0.07153 2.78596,0.35941 4.14634,1.28156c1.34928,0.91501 2.21386,2.30696 2.7195,3.37709zM230.26799,220.00166c-1.3496,0.91501 -2.96265,1.20289 -4.14381,1.27664c0.50564,-1.07061 1.37038,-2.4624 2.7195,-3.37725c1.3496,-0.91501 2.96265,-1.20289 4.14381,-1.27648c-0.5058,1.07061 -1.37038,2.4624 -2.7195,3.37709zM259.83294,220.40801h-5.07547c-0.70073,0 -1.26887,-0.56814 -1.26887,-1.26887c0,-0.70073 0.56814,-1.26887 1.26887,-1.26887h5.07547c0.70073,0 1.26887,0.56814 1.26887,1.26887c0,0.70073 -0.56814,1.26887 -1.26887,1.26887zM261.1018,222.94575c0,0.70073 -0.56814,1.26887 -1.26887,1.26887h-13.95755c-0.70073,0 -1.26887,-0.56814 -1.26887,-1.26887c0,-0.70073 0.56814,-1.26887 1.26887,-1.26887h13.95755c0.70073,0 1.26887,0.56814 1.26887,1.26887zM267.44614,224.21462c0,1.39924 1.13849,2.53774 2.53774,2.53774c1.39924,0 2.53774,-1.13849 2.53774,-2.53774c0,-1.39924 -1.13849,-2.53774 -2.53774,-2.53774c-1.39924,0 -2.53774,1.13849 -2.53774,2.53774zM261.1018,226.75235c0,0.70073 -0.56814,1.26887 -1.26887,1.26887h-6.34434c-0.70073,0 -1.26887,-0.56814 -1.26887,-1.26887c0,-0.70073 0.56814,-1.26887 1.26887,-1.26887h6.34434c0.70073,0 1.26887,0.56814 1.26887,1.26887zM250.95086,229.29009c0,0.70073 -0.56814,1.26887 -1.26887,1.26887h-1.26887v1.26887h1.26887c0.70073,0 1.26887,0.56814 1.26887,1.26887c0,0.70073 -0.56814,1.26887 -1.26887,1.26887h-1.26887v0.21824c1.4768,0.52388 2.53774,1.93423 2.53774,3.58836c0,2.09887 -1.70774,3.8066 -3.8066,3.8066c-2.09887,0 -3.8066,-1.70774 -3.8066,-3.8066c0,-1.65413 1.06093,-3.06463 2.53774,-3.58836v-6.56259c0,-0.70073 0.56814,-1.26887 1.26887,-1.26887c0.70073,0 1.26887,0.56814 1.26887,1.26887h1.26887c0.70073,0 1.26887,0.56814 1.26887,1.26887zM222.48523,232.69795c-1.18179,-0.07359 -2.79468,-0.36163 -4.14397,-1.27648c-1.35134,-0.91644 -2.21687,-2.31156 -2.72188,-3.38217c1.17688,0.07153 2.78596,0.35941 4.14634,1.28156c1.34928,0.91501 2.21386,2.30696 2.7195,3.37709zM230.26799,231.42147c-1.3496,0.91501 -2.96265,1.20289 -4.14381,1.27664c0.50564,-1.07061 1.37038,-2.4624 2.7195,-3.37725c1.3496,-0.91501 2.96265,-1.20289 4.14381,-1.27648c-0.5058,1.07061 -1.37038,2.4624 -2.7195,3.37709zM254.75746,234.36556c-0.70073,0 -1.26887,-0.56814 -1.26887,-1.26887c0,-0.70073 0.56814,-1.26887 1.26887,-1.26887h8.88208c0.70073,0 1.26887,0.56814 1.26887,1.26887c0,0.70073 -0.56814,1.26887 -1.26887,1.26887zM253.48859,236.9033c0,-0.70073 0.56814,-1.26887 1.26887,-1.26887h20.30189c0.70073,0 1.26887,0.56814 1.26887,1.26887c0,0.70073 -0.56814,1.26887 -1.26887,1.26887h-20.30189c-0.70073,0 -1.26887,-0.56814 -1.26887,-1.26887zM245.87538,238.17217c0,0.69962 0.56925,1.26887 1.26887,1.26887c0.69962,0 1.26887,-0.56925 1.26887,-1.26887c0,-0.69962 -0.56925,-1.26887 -1.26887,-1.26887c-0.69962,0 -1.26887,0.56925 -1.26887,1.26887zM224.30463,238.17217c3.54744,0 6.83999,1.76214 8.80769,4.71384l0.24124,0.36163h-18.09787l0.24124,-0.36163c1.9677,-2.95171 5.26025,-4.71384 8.80769,-4.71384zM253.48859,240.70991c0,-0.70073 0.56814,-1.26887 1.26887,-1.26887h20.30189c0.70073,0 1.26887,0.56814 1.26887,1.26887c0,0.70073 -0.56814,1.26887 -1.26887,1.26887h-20.30189c-0.70073,0 -1.26887,-0.56814 -1.26887,-1.26887zM211.32553,250.86085c-1.23921,0 -2.24732,-1.00811 -2.24732,-2.24732v-2.82815h71.05662v2.82815c0,1.23921 -1.00811,2.24732 -2.24732,2.24732zM234.45557,248.32312c0,-0.70073 0.56814,-1.26887 1.26887,-1.26887h17.76416c0.70073,0 1.26887,0.56814 1.26887,1.26887c0,0.70073 -0.56814,1.26887 -1.26887,1.26887h-17.76416c-0.70073,0 -1.26887,-0.56814 -1.26887,-1.26887zM258.56407,248.32312c0,-0.70073 0.56814,-1.26887 1.26887,-1.26887h2.53774c0.70073,0 1.26887,0.56814 1.26887,1.26887c0,0.70073 -0.56814,1.26887 -1.26887,1.26887h-2.53774c-0.70073,0 -1.26887,-0.56814 -1.26887,-1.26887zM264.9084,248.32312c0,-0.70073 0.56814,-1.26887 1.26887,-1.26887h2.53774c0.70073,0 1.26887,0.56814 1.26887,1.26887c0,0.70073 -0.56814,1.26887 -1.26887,1.26887h-2.53774c-0.70073,0 -1.26887,-0.56814 -1.26887,-1.26887zM272.52161,247.05425h2.53774c0.70073,0 1.26887,0.56814 1.26887,1.26887c0,0.70073 -0.56814,1.26887 -1.26887,1.26887h-2.53774c-0.70073,0 -1.26887,-0.56814 -1.26887,-1.26887c0,-0.70073 0.56814,-1.26887 1.26887,-1.26887zM250.32324,261.01179h-11.43298c1.34246,-2.35089 2.08412,-4.95001 2.19594,-7.61321h7.03667c0.11229,2.66336 0.85728,5.26216 2.20038,7.61321zM231.48784,267.35614c1.62114,-2.35978 4.30495,-3.8066 7.263,-3.8066h11.71134c2.95805,0 5.64186,1.44683 7.263,3.8066z" data-paper-data="{&quot;isPathIcon&quot;:true}"></path></g></g></g></g><g class="watermark-group" style="opacity:0.040000010281801224"><path class="watermark-path" d="M129.52,370.3a11.88,11.88,0,0,1,2.58,5.58,12,12,0,0,1,.11,3,11.81,11.81,0,0,1-.64,2.93,12.34,12.34,0,0,1-1.41,2.72,11.65,11.65,0,0,1-2.13,2.32,12,12,0,0,1-2.64,1.69,13,13,0,0,1-2.91.9,12.47,12.47,0,0,1-3,.12,12.17,12.17,0,0,1-2.93-.64,11.8,11.8,0,0,1-2.72-1.38,12.19,12.19,0,0,1-4-4.79,11.85,11.85,0,0,1-.89-2.92,12.14,12.14,0,0,1-.13-3,11.54,11.54,0,0,1,.64-2.92,11.67,11.67,0,0,1,3.5-5,11.44,11.44,0,0,1,2.67-1.69,11.64,11.64,0,0,1,2.92-.91,10.71,10.71,0,0,1,3-.12,11.68,11.68,0,0,1,5.66,2,11.7,11.7,0,0,1,2.34,2.12m-1.4,8.76a13,13,0,0,1-1.22,2.32,9.68,9.68,0,0,1-1.81,2,7.44,7.44,0,0,1-2.38,1.37,6.17,6.17,0,0,1-5.11-.46,8.73,8.73,0,0,1-3.85-4.58,6.69,6.69,0,0,1-.34-2.66,6.09,6.09,0,0,1,.77-2.47,7.15,7.15,0,0,1,1.75-2.11,9.58,9.58,0,0,1,1.09-.81,8.23,8.23,0,0,1,1.12-.63,8.14,8.14,0,0,1,1.19-.46,12.71,12.71,0,0,1,1.32-.37l2,2.38a12.83,12.83,0,0,0-1.56.17,7.86,7.86,0,0,0-1.23.32,4.5,4.5,0,0,0-1,.49,6.41,6.41,0,0,0-.93.67,4.49,4.49,0,0,0-1.15,1.39,3.87,3.87,0,0,0-.45,1.58,4.12,4.12,0,0,0,.26,1.63,6.11,6.11,0,0,0,2.36,2.82,4.43,4.43,0,0,0,1.57.53,3.91,3.91,0,0,0,1.62-.17,4.71,4.71,0,0,0,1.57-.89,10.5,10.5,0,0,0,.83-.79,5.71,5.71,0,0,0,.65-.93,10.13,10.13,0,0,0,.54-1.14,12.24,12.24,0,0,0,.44-1.49l2,2.33m-14.46,4.55a8.86,8.86,0,0,0,2.78,2.22,9,9,0,0,0,3.29.94,9.15,9.15,0,0,0,3.39-.37,8.68,8.68,0,0,0,3.11-1.69,8.8,8.8,0,0,0,2.22-2.78,9.15,9.15,0,0,0,1-3.29,8.95,8.95,0,0,0-4.83-8.76,9,9,0,0,0-6.73-.57,9,9,0,0,0-5.33,4.47,8.94,8.94,0,0,0-.57,6.71,8.76,8.76,0,0,0,1.7,3.12"></path><path class="watermark-path" d="M147,349c-.48.12-1.09.31-1.82.57a24.37,24.37,0,0,0-2.4,1A28.35,28.35,0,0,0,140,352a20.72,20.72,0,0,0-2.71,1.94c-.7.59-1.28,1.11-1.74,1.57a15.07,15.07,0,0,0-1.1,1.22,4.09,4.09,0,0,0-.59.92,2.32,2.32,0,0,0-.22.64,1.16,1.16,0,0,0,0,.47,1.83,1.83,0,0,0,.18.29,1.15,1.15,0,0,0,1,.37,5.54,5.54,0,0,0,1.51-.38q.87-.35,1.95-.9l2.26-1.18q1.2-.65,2.49-1.29c.87-.44,1.73-.83,2.59-1.17a18.94,18.94,0,0,1,2.6-.81,9.27,9.27,0,0,1,2.46-.29,6.25,6.25,0,0,1,2.24.49,5.12,5.12,0,0,1,1.89,1.47,6.35,6.35,0,0,1,1.41,2.61,6,6,0,0,1,.09,2.6,8.3,8.3,0,0,1-.9,2.52,17.79,17.79,0,0,1-1.62,2.37,23.92,23.92,0,0,1-2,2.15c-.72.67-1.41,1.29-2.09,1.87a33.79,33.79,0,0,1-5.33,3.7,32.29,32.29,0,0,1-4.91,2.28l-3.61-4.3a21.38,21.38,0,0,0,5.39-1.87,27.2,27.2,0,0,0,5.4-3.56,21.59,21.59,0,0,0,2.38-2.27,8.67,8.67,0,0,0,1.18-1.7,2.32,2.32,0,0,0,.27-1.19,1.34,1.34,0,0,0-.28-.74,1.21,1.21,0,0,0-1-.42,4.32,4.32,0,0,0-1.55.34,15.77,15.77,0,0,0-2,.88c-.72.37-1.48.77-2.27,1.21l-2.45,1.3c-.85.45-1.7.85-2.56,1.21a22.37,22.37,0,0,1-2.54.86,10,10,0,0,1-2.43.32,5.76,5.76,0,0,1-2.2-.45,5,5,0,0,1-1.89-1.45,6.12,6.12,0,0,1-1.31-2.41,6,6,0,0,1-.1-2.41,8.28,8.28,0,0,1,.81-2.38,14.06,14.06,0,0,1,1.49-2.24,22.37,22.37,0,0,1,1.85-2.05q1-1,2-1.77c.7-.59,1.44-1.15,2.23-1.7s1.62-1.06,2.44-1.53,1.63-.91,2.43-1.3,1.58-.75,2.3-1L147,349"></path><path class="watermark-path" d="M186.76,337.57l-10.6-12.63,3.92,18.24-4.66,3.91-17.27-7,10.6,12.63-4.86,4.07-15.09-18,6.59-5.54,18.69,7.52-4.15-19.71,6.57-5.52,15.09,18-4.83,4.05"></path><path class="watermark-path" d="M208.84,313.24l-10,8.42,1.16,4.82L194.56,331l-5.68-25.89,5.42-4.55,24.51,10.09-5.42,4.55-4.55-2m-11.23,3.45,6.57-5.52-8.83-3.87,2.26,9.39"></path><path class="watermark-path" d="M227.49,281.38c-.48.12-1.09.31-1.82.57a24.37,24.37,0,0,0-2.4,1,26.11,26.11,0,0,0-2.7,1.47,20.72,20.72,0,0,0-2.71,1.94c-.7.59-1.28,1.11-1.74,1.57a13.39,13.39,0,0,0-1.1,1.22,4.29,4.29,0,0,0-.59.91,2.48,2.48,0,0,0-.22.65,1.16,1.16,0,0,0,0,.47,1.83,1.83,0,0,0,.18.29,1.15,1.15,0,0,0,1,.37,5.54,5.54,0,0,0,1.51-.38q.87-.34,2-.9l2.26-1.18q1.2-.64,2.49-1.29c.87-.44,1.73-.83,2.59-1.17a18.94,18.94,0,0,1,2.6-.81,9.27,9.27,0,0,1,2.46-.29,6.08,6.08,0,0,1,2.24.49,5.09,5.09,0,0,1,1.89,1.46,6.47,6.47,0,0,1,1.41,2.61,6.07,6.07,0,0,1,.09,2.61,8.3,8.3,0,0,1-.9,2.52,16.32,16.32,0,0,1-1.63,2.36,21.41,21.41,0,0,1-2,2.16c-.72.67-1.41,1.29-2.1,1.86a33.36,33.36,0,0,1-5.32,3.71,31.92,31.92,0,0,1-4.92,2.28l-3.6-4.3a21.38,21.38,0,0,0,5.39-1.87,27.2,27.2,0,0,0,5.4-3.56,21.59,21.59,0,0,0,2.38-2.27,8.67,8.67,0,0,0,1.18-1.7A2.32,2.32,0,0,0,231,293a1.34,1.34,0,0,0-.28-.74,1.21,1.21,0,0,0-1-.42,4.32,4.32,0,0,0-1.55.34,16.54,16.54,0,0,0-2,.88c-.71.37-1.47.77-2.26,1.21l-2.46,1.3c-.84.44-1.7.85-2.55,1.21a24.53,24.53,0,0,1-2.54.86A10,10,0,0,1,214,298a5.76,5.76,0,0,1-2.2-.45,5,5,0,0,1-1.89-1.45,6.12,6.12,0,0,1-1.31-2.41,5.78,5.78,0,0,1-.1-2.41,8,8,0,0,1,.81-2.38,14.61,14.61,0,0,1,1.49-2.25,22.26,22.26,0,0,1,1.85-2q1-1,2-1.77c.7-.59,1.44-1.15,2.23-1.7s1.62-1.06,2.44-1.53,1.63-.91,2.43-1.31,1.58-.74,2.3-1l3.5,4.16"></path><path class="watermark-path" d="M261.64,274.74l-6.29-7.5L243,277.61l6.3,7.5-4.86,4.07-15.09-18,4.85-4.08,5.49,6.55L252,263.3l-5.49-6.55,4.86-4.07,15.09,18-4.86,4.08"></path><path class="watermark-path" d="M272.18,265.9l-15.09-18,4.86-4.08,15.09,18-4.86,4.08"></path><path class="watermark-path" d="M299.65,242.85l-22.51-2.18L287.51,253l-4.85,4.08-15.1-18,5.28-4.43,22.56,2.22L285,224.5l4.83-4.06,15.09,18-5.26,4.42"></path><path class="watermark-path" d="M306.68,205.52a31.88,31.88,0,0,1,5.29-3.66,34.48,34.48,0,0,1,5.14-2.35l3.69,4.39a20.77,20.77,0,0,0-2.37.61,20.47,20.47,0,0,0-2.61,1,25.12,25.12,0,0,0-2.76,1.49,23.9,23.9,0,0,0-2.8,2,20.42,20.42,0,0,0-2.8,2.77,12.77,12.77,0,0,0-1.64,2.52,7,7,0,0,0-.68,2.24,6,6,0,0,0,.66,3.64,8.16,8.16,0,0,0,.94,1.38,9.12,9.12,0,0,0,1.08,1.07,6.39,6.39,0,0,0,1.47.91,6.73,6.73,0,0,0,1.88.48,6.54,6.54,0,0,0,2.28-.18,11.67,11.67,0,0,0,2.74-1.07,19.38,19.38,0,0,0,3.18-2.22c.57-.48,1.06-.92,1.46-1.31a14.57,14.57,0,0,0,1-1.13,11.46,11.46,0,0,0,.81-1.05l.74-1.09-1.82-2.17-5.45,4.57-3.31-3.94,10.31-8.65,7.71,9.19a29,29,0,0,1-1.67,2.43q-1,1.26-2.1,2.52c-.74.84-1.5,1.65-2.3,2.44s-1.58,1.5-2.33,2.14a31,31,0,0,1-3.59,2.61,22.55,22.55,0,0,1-3.64,1.83,15.64,15.64,0,0,1-3.63.89,10.72,10.72,0,0,1-3.49-.15,10.45,10.45,0,0,1-3.28-1.33,12.54,12.54,0,0,1-3-2.67,12,12,0,0,1-2.08-3.44,10.45,10.45,0,0,1-.71-3.5,11.14,11.14,0,0,1,.51-3.51,15.72,15.72,0,0,1,1.56-3.43,21.62,21.62,0,0,1,2.42-3.28,30.3,30.3,0,0,1,3.15-3"></path><path class="watermark-path" d="M336.91,211.59l-15.1-18,4.86-4.08,11.79,14,13.13-11,3.31,3.94-18,15.1"></path><path class="watermark-path" d="M374.54,164.71a12.28,12.28,0,0,1,2.59,4.81,10.44,10.44,0,0,1,0,5,14.62,14.62,0,0,1-2.33,5,25.55,25.55,0,0,1-4.56,4.85,26.07,26.07,0,0,1-5.6,3.67,14.79,14.79,0,0,1-5.38,1.43,10.43,10.43,0,0,1-4.94-.89,13.24,13.24,0,0,1-6.87-8.18,10.48,10.48,0,0,1,0-5,14.51,14.51,0,0,1,2.36-5,25.23,25.23,0,0,1,4.57-4.89,25,25,0,0,1,5.59-3.64,14.45,14.45,0,0,1,5.35-1.43,10.31,10.31,0,0,1,4.93.92,12.22,12.22,0,0,1,4.28,3.38m-4.91,4.11a8.36,8.36,0,0,0-2-1.72,5.5,5.5,0,0,0-2.65-.85,7.72,7.72,0,0,0-3.32.57,14.49,14.49,0,0,0-4,2.52,16.72,16.72,0,0,0-2.38,2.4,10.15,10.15,0,0,0-1.39,2.24,6.71,6.71,0,0,0-.56,2.1,5.69,5.69,0,0,0,.1,1.9,6.21,6.21,0,0,0,.61,1.69,9.85,9.85,0,0,0,1,1.44,10.48,10.48,0,0,0,1.26,1.23,6.67,6.67,0,0,0,1.57.92,6.1,6.1,0,0,0,1.85.41,6.8,6.8,0,0,0,2.15-.2,11.06,11.06,0,0,0,2.45-1,17.67,17.67,0,0,0,2.77-1.94,14.39,14.39,0,0,0,3.18-3.52,7.74,7.74,0,0,0,1.14-3.17,5.54,5.54,0,0,0-.37-2.74,8.52,8.52,0,0,0-1.36-2.3"></path><path class="watermark-path" d="M382.66,141.76A32.3,32.3,0,0,1,388,138.1a34.12,34.12,0,0,1,5.15-2.35l3.69,4.4a19.62,19.62,0,0,0-2.37.6,22.08,22.08,0,0,0-2.61,1,26,26,0,0,0-2.77,1.49,23.9,23.9,0,0,0-2.8,2,21,21,0,0,0-2.8,2.78,13.19,13.19,0,0,0-1.64,2.51,7.29,7.29,0,0,0-.68,2.24,6.36,6.36,0,0,0,.06,2,5.8,5.8,0,0,0,.61,1.68,8.12,8.12,0,0,0,.93,1.38,9.16,9.16,0,0,0,1.08,1.08,6.56,6.56,0,0,0,1.48.9,6,6,0,0,0,1.87.48,6.76,6.76,0,0,0,2.28-.17,12,12,0,0,0,2.74-1.08,18.57,18.57,0,0,0,3.18-2.22c.58-.48,1.06-.92,1.46-1.31s.75-.77,1.05-1.12.57-.72.81-1.06l.73-1.09-1.82-2.17-5.45,4.57-3.3-3.94,10.3-8.65,7.71,9.19a29,29,0,0,1-1.67,2.43q-1,1.26-2.1,2.52c-.73.84-1.5,1.66-2.3,2.44s-1.57,1.5-2.33,2.14a31,31,0,0,1-3.59,2.61,22.15,22.15,0,0,1-3.64,1.83,15.56,15.56,0,0,1-3.62.89,11,11,0,0,1-3.49-.14,10.84,10.84,0,0,1-3.28-1.33,12.82,12.82,0,0,1-3-2.68,12.12,12.12,0,0,1-2.08-3.43A10.71,10.71,0,0,1,375,155a11.18,11.18,0,0,1,.51-3.51,15.51,15.51,0,0,1,1.57-3.43,21.44,21.44,0,0,1,2.42-3.28,30.19,30.19,0,0,1,3.14-3"></path><path class="watermark-path" d="M428.63,119.31a12.26,12.26,0,0,1,2.59,4.82,10.44,10.44,0,0,1,0,5,14.53,14.53,0,0,1-2.34,5,25.29,25.29,0,0,1-4.56,4.86,26,26,0,0,1-5.59,3.67,14.84,14.84,0,0,1-5.38,1.43,10.61,10.61,0,0,1-4.95-.89,12.15,12.15,0,0,1-4.3-3.37,12,12,0,0,1-2.56-4.81,10.48,10.48,0,0,1,0-5,14.39,14.39,0,0,1,2.35-5,27.89,27.89,0,0,1,10.16-8.53,14.49,14.49,0,0,1,5.36-1.43,10.27,10.27,0,0,1,4.92.92,12.21,12.21,0,0,1,4.28,3.37m-4.91,4.12a8.17,8.17,0,0,0-2-1.72,5.58,5.58,0,0,0-2.65-.86,7.86,7.86,0,0,0-3.31.58,14.49,14.49,0,0,0-4,2.52,16.21,16.21,0,0,0-2.38,2.4,9.85,9.85,0,0,0-1.4,2.24,7,7,0,0,0-.56,2.1,6,6,0,0,0,.1,1.9,6.23,6.23,0,0,0,.62,1.69,8.49,8.49,0,0,0,1,1.44,9.18,9.18,0,0,0,1.26,1.23,6.67,6.67,0,0,0,1.57.92,6,6,0,0,0,1.84.41,6.86,6.86,0,0,0,2.16-.2,11.26,11.26,0,0,0,2.45-1,17.62,17.62,0,0,0,2.76-1.94,14.67,14.67,0,0,0,3.19-3.52,7.71,7.71,0,0,0,1.13-3.17,5.53,5.53,0,0,0-.36-2.74,8.55,8.55,0,0,0-1.37-2.3"></path></g></svg>